<?xml version="1.0" encoding="UTF-8" standalone="no"?>
<!-- Created with Inkscape (http://www.inkscape.org/) -->

<svg
   width="105.05814mm"
   height="167.00798mm"
   viewBox="0 0 105.05814 167.00798"
   version="1.1"
   id="svg3959"
   inkscape:version="1.2.2 (b0a8486541, 2022-12-01)"
   sodipodi:docname="star_fleet.svg"
   xml:space="preserve"
   xmlns:inkscape="http://www.inkscape.org/namespaces/inkscape"
   xmlns:sodipodi="http://sodipodi.sourceforge.net/DTD/sodipodi-0.dtd"
   xmlns="http://www.w3.org/2000/svg"
   xmlns:svg="http://www.w3.org/2000/svg"><sodipodi:namedview
     id="namedview3961"
     pagecolor="#ffffff"
     bordercolor="#000000"
     borderopacity="0.25"
     inkscape:showpageshadow="2"
     inkscape:pageopacity="0.0"
     inkscape:pagecheckerboard="0"
     inkscape:deskcolor="#d1d1d1"
     inkscape:document-units="mm"
     showgrid="false"
     inkscape:zoom="1.0179639"
     inkscape:cx="155.21179"
     inkscape:cy="238.71181"
     inkscape:window-width="1920"
     inkscape:window-height="1011"
     inkscape:window-x="0"
     inkscape:window-y="0"
     inkscape:window-maximized="1"
     inkscape:current-layer="layer1" /><defs
     id="defs3956" /><g
     inkscape:label="Layer 1"
     inkscape:groupmode="layer"
     id="layer1"
     transform="translate(-65.256054,-25.187325)"><path
       id="path6242"
       style="color:#000000;vector-effect:non-scaling-stroke;fill:#000000;fill-opacity:1;stroke:none;stroke-width:0.264583;stroke-dasharray:none;stroke-opacity:1;-inkscape-stroke:hairline"
       d="m 121.53882,25.187434 c -6.2e-4,-2e-6 -0.40977,0.02636 -0.56224,0.05891 -0.15247,0.03255 -0.27322,0.07094 -0.37517,0.109037 -0.20388,0.07619 -0.3329,0.147299 -0.43356,0.207223 -0.20132,0.119848 -0.29348,0.199751 -0.36897,0.26355 -0.15099,0.127597 -0.21164,0.195724 -0.26975,0.257865 -0.11623,0.124283 -0.18778,0.212132 -0.26924,0.312643 -0.16293,0.201022 -0.34093,0.434093 -0.555,0.720886 -0.42815,0.573586 -0.98679,1.346434 -1.61541,2.232422 -1.25724,1.771977 -2.78653,3.984986 -4.00957,5.823934 -3.93951,5.923356 -7.63434,12.137293 -11.1895,18.812805 -1.29198,2.425919 -4.220375,8.227785 -5.238435,10.384379 -1.4221,3.012461 -4.09213,8.914905 -4.73615,10.537341 -0.0585,0.147323 -0.4846,1.17841 -0.87488,2.105298 -1.36621,3.244656 -2.5446,6.239934 -4.20698,10.691337 -1.6068,4.302564 -4.27965,12.116863 -5.53351,16.183506 -0.31187,1.01153 -0.69972,2.25582 -0.84956,2.72904 -0.29917,0.94482 -0.50899,1.66489 -1.64435,5.61309 -1.54982,5.3895 -3.4739,12.80233 -4.6116,17.77514 -2.80681,12.26833 -5.19972,25.18671 -6.48022,35.01957 -0.0839,0.64402 -0.26282,1.97355 -0.3943,2.92799 -0.13746,0.99799 -0.33637,2.58738 -0.45165,3.61115 -0.1105,0.9813 -0.31479,2.75968 -0.45268,3.93567 -0.21833,1.8618 -0.64259,6.96167 -0.90434,10.35131 h -0.0687 l -0.14831,2.48822 c -0.0205,0.34465 -0.0327,0.65098 -0.0372,0.90847 -0.002,0.12874 -0.003,0.23261 0.004,0.39636 0.004,0.0819 -0.005,0.14492 0.047,0.4222 0.0129,0.0693 0.0281,0.15374 0.0682,0.2868 0.0201,0.0665 0.0463,0.1451 0.0879,0.24598 0.0415,0.10088 0.19705,0.38443 0.1974,0.38498 3.5e-4,5.8e-4 0.5071,0.6012 0.50746,0.60151 3.7e-4,3.2e-4 1.24192,0.6092 1.24231,0.60927 3.8e-4,8e-5 1.56797,-0.17552 1.56837,-0.1757 4e-4,-1.7e-4 0.82507,-0.57061 0.82993,-0.57413 l 0.002,-0.002 c 0.006,-0.007 0.20538,-0.23625 0.25011,-0.29301 0.001,-0.002 0.004,-0.006 0.006,-0.008 h 0.36174 l 0.0289,-0.50023 c 0.12651,-0.16217 0.24058,-0.30637 0.41238,-0.5271 0.52288,-0.67182 1.23678,-1.59027 2.01538,-2.59415 4.8157,-6.20918 8.51542,-10.73242 13.48238,-16.47807 1.19395,-1.38114 2.82259,-3.20589 4.81262,-5.39295 6.77633,-7.44724 13.644025,-14.17095 19.123375,-18.74768 9.64108,-8.05293 17.77351,-12.44238 23.87297,-13.42967 0.58466,-0.0946 0.98096,-0.14079 1.19734,-0.16795 0.056,0.0348 0.0539,0.0374 0.24184,0.14831 1.03194,0.60869 1.9649,1.27534 2.78743,1.98437 4.11738,3.54922 8.75789,9.60127 14.71486,19.50371 2.84581,4.73066 6.16819,10.68542 9.92756,17.8046 0.76938,1.45698 1.58698,3.00422 1.82418,3.45147 0.14194,0.26761 0.25056,0.46911 0.42168,0.7245 0.0856,0.1277 -0.15356,0.13227 0.72296,0.76533 0.10957,0.0791 0.25018,0.17486 0.48214,0.2775 0.11598,0.0513 0.25715,0.10454 0.43201,0.14832 0.17485,0.0438 0.63605,0.0786 0.63665,0.0786 6e-4,0 0.83354,-0.13109 0.83406,-0.13125 5.2e-4,-1.7e-4 0.82174,-0.44304 0.82217,-0.44338 4.3e-4,-3.4e-4 0.55621,-0.60463 0.55656,-0.60513 3.4e-4,-5.2e-4 0.22107,-0.38885 0.28112,-0.55087 0.48039,-1.29622 0.13838,-1.34716 0.0977,-1.52911 -0.074,-0.33172 -0.54081,-3.27335 -1.5782,-10.53941 -2.28823,-16.02707 -3.81843,-25.10293 -6.13451,-36.3771 -1.60011,-7.78898 -3.97482,-17.97303 -5.53144,-23.69313 -1.06751,-3.92274 -1.42759,-5.220996 -2.00402,-7.241938 -0.34989,-1.226693 -0.7477,-2.599859 -0.90795,-3.133142 -2.46714,-8.210433 -4.67197,-14.823792 -7.1329,-21.382674 -1.52263,-4.058106 -1.90218,-5.024392 -3.4432,-8.76949 -3.73535,-9.077888 -7.91542,-17.725207 -12.36565,-25.576217 -1.23556,-2.179746 -2.99264,-5.11181 -4.48603,-7.527189 -0.7467,-1.207689 -1.42406,-2.281808 -1.94511,-3.078365 -0.26053,-0.398279 -0.47819,-0.7237 -0.67024,-0.992188 -0.096,-0.134244 -0.17936,-0.248515 -0.30437,-0.398425 -0.0625,-0.07495 -0.12711,-0.154346 -0.28371,-0.300757 -0.0783,-0.07321 -0.173,-0.165448 -0.38447,-0.302824 -0.10574,-0.06869 -0.24033,-0.150761 -0.45682,-0.238228 -0.10825,-0.04373 -0.23879,-0.08774 -0.40049,-0.125057 -0.16171,-0.03732 -0.58929,-0.06821 -0.59015,-0.06821 z m 43.371,150.333976 c 0.0141,0.0683 0.0706,0.50183 0.0842,0.56275 -0.0211,-0.0895 -0.0914,-0.24787 -0.0842,-0.56275 z" /></g></svg>
